<mxfile host="Electron" modified="2023-11-22T19:44:38.714Z" agent="Mozilla/5.0 (Windows NT 10.0; Win64; x64) AppleWebKit/537.36 (KHTML, like Gecko) draw.io/22.0.3 Chrome/114.0.5735.289 Electron/25.8.4 Safari/537.36" etag="qFM5g--3BNo47Z0J3CzC" version="22.0.3" type="device">
  <diagram name="Page-1" id="QukBeWTwhGWqlUTuJEBV">
    <mxGraphModel dx="1574" dy="428" grid="1" gridSize="10" guides="1" tooltips="1" connect="1" arrows="1" fold="1" page="1" pageScale="1" pageWidth="850" pageHeight="1100" math="0" shadow="0">
      <root>
        <mxCell id="0" />
        <mxCell id="1" parent="0" />
        <mxCell id="sAKsE0ivogJ3GXm1SD5--2" value="v0_REG" style="rounded=0;whiteSpace=wrap;html=1;" parent="1" vertex="1">
          <mxGeometry x="255" y="130" width="60" height="40" as="geometry" />
        </mxCell>
        <mxCell id="sAKsE0ivogJ3GXm1SD5--7" value="v1_REG" style="rounded=0;whiteSpace=wrap;html=1;" parent="1" vertex="1">
          <mxGeometry x="350" y="130" width="60" height="40" as="geometry" />
        </mxCell>
        <mxCell id="sAKsE0ivogJ3GXm1SD5--9" value="num_rounds" style="rounded=0;whiteSpace=wrap;html=1;" parent="1" vertex="1">
          <mxGeometry x="570" y="30" width="80" height="40" as="geometry" />
        </mxCell>
        <mxCell id="sAKsE0ivogJ3GXm1SD5--10" value="delta" style="rounded=0;whiteSpace=wrap;html=1;" parent="1" vertex="1">
          <mxGeometry x="1220" y="240" width="80" height="40" as="geometry" />
        </mxCell>
        <mxCell id="sAKsE0ivogJ3GXm1SD5--13" value="decrypt&lt;br&gt;/encrypt" style="rounded=0;whiteSpace=wrap;html=1;" parent="1" vertex="1">
          <mxGeometry x="670" y="30" width="60" height="40" as="geometry" />
        </mxCell>
        <mxCell id="sAKsE0ivogJ3GXm1SD5--14" value="&amp;lt;&amp;lt; 4" style="rounded=0;whiteSpace=wrap;html=1;" parent="1" vertex="1">
          <mxGeometry x="240" y="280" width="80" height="40" as="geometry" />
        </mxCell>
        <mxCell id="sAKsE0ivogJ3GXm1SD5--16" value="&amp;gt;&amp;gt; 5" style="rounded=0;whiteSpace=wrap;html=1;" parent="1" vertex="1">
          <mxGeometry x="340" y="280" width="80" height="40" as="geometry" />
        </mxCell>
        <mxCell id="sAKsE0ivogJ3GXm1SD5--19" value="XOR" style="rounded=0;whiteSpace=wrap;html=1;" parent="1" vertex="1">
          <mxGeometry x="290" y="340" width="80" height="40" as="geometry" />
        </mxCell>
        <mxCell id="sAKsE0ivogJ3GXm1SD5--21" value="+" style="shape=trapezoid;perimeter=trapezoidPerimeter;whiteSpace=wrap;html=1;fixedSize=1;flipV=1;" parent="1" vertex="1">
          <mxGeometry x="340" y="420" width="80" height="40" as="geometry" />
        </mxCell>
        <mxCell id="sAKsE0ivogJ3GXm1SD5--30" value="" style="endArrow=classic;html=1;rounded=0;" parent="1" edge="1">
          <mxGeometry width="50" height="50" relative="1" as="geometry">
            <mxPoint x="310" y="320" as="sourcePoint" />
            <mxPoint x="310" y="340" as="targetPoint" />
          </mxGeometry>
        </mxCell>
        <mxCell id="sAKsE0ivogJ3GXm1SD5--31" value="" style="endArrow=classic;html=1;rounded=0;" parent="1" edge="1">
          <mxGeometry width="50" height="50" relative="1" as="geometry">
            <mxPoint x="350" y="320" as="sourcePoint" />
            <mxPoint x="350" y="340" as="targetPoint" />
          </mxGeometry>
        </mxCell>
        <mxCell id="sAKsE0ivogJ3GXm1SD5--39" value="sum_reg" style="rounded=0;whiteSpace=wrap;html=1;" parent="1" vertex="1">
          <mxGeometry x="940" y="300" width="80" height="40" as="geometry" />
        </mxCell>
        <mxCell id="sAKsE0ivogJ3GXm1SD5--40" value="+" style="shape=trapezoid;perimeter=trapezoidPerimeter;whiteSpace=wrap;html=1;fixedSize=1;flipV=1;" parent="1" vertex="1">
          <mxGeometry x="1000" y="380" width="80" height="40" as="geometry" />
        </mxCell>
        <mxCell id="sAKsE0ivogJ3GXm1SD5--42" value="" style="endArrow=classic;html=1;rounded=0;" parent="1" edge="1">
          <mxGeometry width="50" height="50" relative="1" as="geometry">
            <mxPoint x="1010" y="340" as="sourcePoint" />
            <mxPoint x="1010" y="380" as="targetPoint" />
          </mxGeometry>
        </mxCell>
        <mxCell id="ZehIWAUSO71Dhs0gPwcl-48" value="sum_out" style="edgeLabel;html=1;align=center;verticalAlign=middle;resizable=0;points=[];" parent="sAKsE0ivogJ3GXm1SD5--42" vertex="1" connectable="0">
          <mxGeometry x="-0.572" y="2" relative="1" as="geometry">
            <mxPoint as="offset" />
          </mxGeometry>
        </mxCell>
        <mxCell id="sAKsE0ivogJ3GXm1SD5--43" value="" style="endArrow=classic;html=1;rounded=0;edgeStyle=orthogonalEdgeStyle;" parent="1" edge="1">
          <mxGeometry width="50" height="50" relative="1" as="geometry">
            <mxPoint x="1260" y="280" as="sourcePoint" />
            <mxPoint x="1060" y="380" as="targetPoint" />
            <Array as="points">
              <mxPoint x="1060" y="320" />
            </Array>
          </mxGeometry>
        </mxCell>
        <mxCell id="ZehIWAUSO71Dhs0gPwcl-50" value="delta" style="edgeLabel;html=1;align=center;verticalAlign=middle;resizable=0;points=[];" parent="sAKsE0ivogJ3GXm1SD5--43" vertex="1" connectable="0">
          <mxGeometry x="-0.264" y="-1" relative="1" as="geometry">
            <mxPoint x="-29" y="-4" as="offset" />
          </mxGeometry>
        </mxCell>
        <mxCell id="sAKsE0ivogJ3GXm1SD5--45" value="&amp;gt;&amp;gt;11" style="rounded=0;whiteSpace=wrap;html=1;" parent="1" vertex="1">
          <mxGeometry x="900" y="420" width="80" height="40" as="geometry" />
        </mxCell>
        <mxCell id="sAKsE0ivogJ3GXm1SD5--47" value="op_mux" style="shape=trapezoid;perimeter=trapezoidPerimeter;whiteSpace=wrap;html=1;fixedSize=1;flipV=1;" parent="1" vertex="1">
          <mxGeometry x="290" y="200" width="80" height="40" as="geometry" />
        </mxCell>
        <mxCell id="sAKsE0ivogJ3GXm1SD5--54" value="" style="endArrow=none;html=1;rounded=0;" parent="1" edge="1">
          <mxGeometry width="50" height="50" relative="1" as="geometry">
            <mxPoint x="280" y="220" as="sourcePoint" />
            <mxPoint x="300" y="220" as="targetPoint" />
          </mxGeometry>
        </mxCell>
        <mxCell id="sAKsE0ivogJ3GXm1SD5--55" value="operation" style="edgeLabel;html=1;align=center;verticalAlign=middle;resizable=0;points=[];fontStyle=1" parent="sAKsE0ivogJ3GXm1SD5--54" vertex="1" connectable="0">
          <mxGeometry x="-0.4786" y="-2" relative="1" as="geometry">
            <mxPoint x="-30" y="-2" as="offset" />
          </mxGeometry>
        </mxCell>
        <mxCell id="sAKsE0ivogJ3GXm1SD5--58" value="" style="endArrow=none;html=1;rounded=0;" parent="1" edge="1">
          <mxGeometry width="50" height="50" relative="1" as="geometry">
            <mxPoint x="330" y="260" as="sourcePoint" />
            <mxPoint x="330" y="240" as="targetPoint" />
          </mxGeometry>
        </mxCell>
        <mxCell id="sAKsE0ivogJ3GXm1SD5--60" value="" style="endArrow=none;html=1;rounded=0;" parent="1" edge="1">
          <mxGeometry width="50" height="50" relative="1" as="geometry">
            <mxPoint x="440" y="260" as="sourcePoint" />
            <mxPoint x="280" y="260" as="targetPoint" />
          </mxGeometry>
        </mxCell>
        <mxCell id="ZehIWAUSO71Dhs0gPwcl-19" value="op_mux_out" style="edgeLabel;html=1;align=center;verticalAlign=middle;resizable=0;points=[];" parent="sAKsE0ivogJ3GXm1SD5--60" vertex="1" connectable="0">
          <mxGeometry x="0.1363" relative="1" as="geometry">
            <mxPoint x="21" y="-10" as="offset" />
          </mxGeometry>
        </mxCell>
        <mxCell id="sAKsE0ivogJ3GXm1SD5--61" value="" style="endArrow=classic;html=1;rounded=0;edgeStyle=orthogonalEdgeStyle;" parent="1" edge="1">
          <mxGeometry width="50" height="50" relative="1" as="geometry">
            <mxPoint x="440" y="260" as="sourcePoint" />
            <mxPoint x="400" y="420" as="targetPoint" />
            <Array as="points">
              <mxPoint x="440" y="400" />
              <mxPoint x="400" y="400" />
            </Array>
          </mxGeometry>
        </mxCell>
        <mxCell id="sAKsE0ivogJ3GXm1SD5--62" value="" style="endArrow=classic;html=1;rounded=0;" parent="1" edge="1">
          <mxGeometry width="50" height="50" relative="1" as="geometry">
            <mxPoint x="359.72" y="380" as="sourcePoint" />
            <mxPoint x="360" y="420" as="targetPoint" />
          </mxGeometry>
        </mxCell>
        <mxCell id="sAKsE0ivogJ3GXm1SD5--63" value="" style="endArrow=classic;html=1;rounded=0;" parent="1" edge="1">
          <mxGeometry width="50" height="50" relative="1" as="geometry">
            <mxPoint x="379.72" y="260" as="sourcePoint" />
            <mxPoint x="379.72" y="280" as="targetPoint" />
          </mxGeometry>
        </mxCell>
        <mxCell id="sAKsE0ivogJ3GXm1SD5--65" value="" style="endArrow=classic;html=1;rounded=0;" parent="1" edge="1">
          <mxGeometry width="50" height="50" relative="1" as="geometry">
            <mxPoint x="279.72" y="260" as="sourcePoint" />
            <mxPoint x="279.72" y="280" as="targetPoint" />
          </mxGeometry>
        </mxCell>
        <mxCell id="sAKsE0ivogJ3GXm1SD5--66" value="XOR" style="rounded=0;whiteSpace=wrap;html=1;" parent="1" vertex="1">
          <mxGeometry x="400" y="500" width="80" height="40" as="geometry" />
        </mxCell>
        <mxCell id="sAKsE0ivogJ3GXm1SD5--67" value="&amp;amp;3" style="rounded=0;whiteSpace=wrap;html=1;" parent="1" vertex="1">
          <mxGeometry x="750" y="300" width="80" height="40" as="geometry" />
        </mxCell>
        <mxCell id="sAKsE0ivogJ3GXm1SD5--68" value="key0" style="rounded=0;whiteSpace=wrap;html=1;" parent="1" vertex="1">
          <mxGeometry x="480" y="220" width="60" height="40" as="geometry" />
        </mxCell>
        <mxCell id="sAKsE0ivogJ3GXm1SD5--70" value="key1" style="rounded=0;whiteSpace=wrap;html=1;" parent="1" vertex="1">
          <mxGeometry x="560" y="200" width="60" height="40" as="geometry" />
        </mxCell>
        <mxCell id="sAKsE0ivogJ3GXm1SD5--71" value="key2" style="rounded=0;whiteSpace=wrap;html=1;" parent="1" vertex="1">
          <mxGeometry x="640" y="200" width="60" height="40" as="geometry" />
        </mxCell>
        <mxCell id="sAKsE0ivogJ3GXm1SD5--72" value="key3" style="rounded=0;whiteSpace=wrap;html=1;" parent="1" vertex="1">
          <mxGeometry x="720" y="220" width="60" height="40" as="geometry" />
        </mxCell>
        <mxCell id="sAKsE0ivogJ3GXm1SD5--73" value="key_mux" style="shape=trapezoid;perimeter=trapezoidPerimeter;whiteSpace=wrap;html=1;fixedSize=1;flipV=1;" parent="1" vertex="1">
          <mxGeometry x="550" y="300" width="160" height="40" as="geometry" />
        </mxCell>
        <mxCell id="sAKsE0ivogJ3GXm1SD5--74" value="" style="endArrow=classic;html=1;rounded=0;" parent="1" edge="1">
          <mxGeometry width="50" height="50" relative="1" as="geometry">
            <mxPoint x="750" y="320" as="sourcePoint" />
            <mxPoint x="700" y="320" as="targetPoint" />
          </mxGeometry>
        </mxCell>
        <mxCell id="ZehIWAUSO71Dhs0gPwcl-62" value="key_sel_out" style="edgeLabel;html=1;align=center;verticalAlign=middle;resizable=0;points=[];" parent="sAKsE0ivogJ3GXm1SD5--74" vertex="1" connectable="0">
          <mxGeometry x="-0.14" y="-1" relative="1" as="geometry">
            <mxPoint x="92" y="16" as="offset" />
          </mxGeometry>
        </mxCell>
        <mxCell id="mlmkOFfD04_6oQdwf5KQ-37" value="key_sel" style="edgeLabel;html=1;align=center;verticalAlign=middle;resizable=0;points=[];" parent="sAKsE0ivogJ3GXm1SD5--74" vertex="1" connectable="0">
          <mxGeometry x="0.2049" y="1" relative="1" as="geometry">
            <mxPoint y="-11" as="offset" />
          </mxGeometry>
        </mxCell>
        <mxCell id="sAKsE0ivogJ3GXm1SD5--75" value="key_&lt;br&gt;sel_&lt;br&gt;mux" style="shape=trapezoid;perimeter=trapezoidPerimeter;whiteSpace=wrap;html=1;fixedSize=1;flipV=1;direction=north;" parent="1" vertex="1">
          <mxGeometry x="850" y="280" width="40" height="80" as="geometry" />
        </mxCell>
        <mxCell id="sAKsE0ivogJ3GXm1SD5--76" value="" style="endArrow=classic;html=1;rounded=0;" parent="1" edge="1">
          <mxGeometry width="50" height="50" relative="1" as="geometry">
            <mxPoint x="940" y="310" as="sourcePoint" />
            <mxPoint x="890" y="310" as="targetPoint" />
          </mxGeometry>
        </mxCell>
        <mxCell id="sAKsE0ivogJ3GXm1SD5--77" value="" style="endArrow=classic;html=1;rounded=0;edgeStyle=orthogonalEdgeStyle;exitX=0.25;exitY=0;exitDx=0;exitDy=0;" parent="1" source="sAKsE0ivogJ3GXm1SD5--45" edge="1">
          <mxGeometry width="50" height="50" relative="1" as="geometry">
            <mxPoint x="920" y="360" as="sourcePoint" />
            <mxPoint x="890" y="330" as="targetPoint" />
            <Array as="points">
              <mxPoint x="920" y="330" />
            </Array>
          </mxGeometry>
        </mxCell>
        <mxCell id="mlmkOFfD04_6oQdwf5KQ-16" value="shifted_sum" style="edgeLabel;html=1;align=center;verticalAlign=middle;resizable=0;points=[];" parent="sAKsE0ivogJ3GXm1SD5--77" vertex="1" connectable="0">
          <mxGeometry x="-0.5475" y="1" relative="1" as="geometry">
            <mxPoint as="offset" />
          </mxGeometry>
        </mxCell>
        <mxCell id="sAKsE0ivogJ3GXm1SD5--78" value="" style="endArrow=classic;html=1;rounded=0;" parent="1" edge="1">
          <mxGeometry width="50" height="50" relative="1" as="geometry">
            <mxPoint x="850" y="320" as="sourcePoint" />
            <mxPoint x="830" y="320" as="targetPoint" />
          </mxGeometry>
        </mxCell>
        <mxCell id="sAKsE0ivogJ3GXm1SD5--80" value="" style="endArrow=classic;html=1;rounded=0;exitX=0.5;exitY=1;exitDx=0;exitDy=0;edgeStyle=orthogonalEdgeStyle;" parent="1" source="sAKsE0ivogJ3GXm1SD5--72" edge="1">
          <mxGeometry width="50" height="50" relative="1" as="geometry">
            <mxPoint x="590" y="260" as="sourcePoint" />
            <mxPoint x="680" y="301" as="targetPoint" />
            <Array as="points">
              <mxPoint x="750" y="281" />
              <mxPoint x="680" y="281" />
              <mxPoint x="680" y="301" />
            </Array>
          </mxGeometry>
        </mxCell>
        <mxCell id="sAKsE0ivogJ3GXm1SD5--81" value="" style="endArrow=classic;html=1;rounded=0;edgeStyle=orthogonalEdgeStyle;" parent="1" edge="1">
          <mxGeometry width="50" height="50" relative="1" as="geometry">
            <mxPoint x="590" y="240" as="sourcePoint" />
            <mxPoint x="610" y="300" as="targetPoint" />
            <Array as="points">
              <mxPoint x="590" y="270" />
              <mxPoint x="610" y="270" />
            </Array>
          </mxGeometry>
        </mxCell>
        <mxCell id="sAKsE0ivogJ3GXm1SD5--82" value="" style="endArrow=classic;html=1;rounded=0;edgeStyle=orthogonalEdgeStyle;" parent="1" edge="1">
          <mxGeometry width="50" height="50" relative="1" as="geometry">
            <mxPoint x="520" y="260" as="sourcePoint" />
            <mxPoint x="580" y="300" as="targetPoint" />
            <Array as="points">
              <mxPoint x="520" y="280" />
              <mxPoint x="580" y="280" />
            </Array>
          </mxGeometry>
        </mxCell>
        <mxCell id="ZehIWAUSO71Dhs0gPwcl-34" value="key0_out" style="edgeLabel;html=1;align=center;verticalAlign=middle;resizable=0;points=[];" parent="sAKsE0ivogJ3GXm1SD5--82" vertex="1" connectable="0">
          <mxGeometry x="-0.779" y="2" relative="1" as="geometry">
            <mxPoint as="offset" />
          </mxGeometry>
        </mxCell>
        <mxCell id="sAKsE0ivogJ3GXm1SD5--83" value="" style="endArrow=classic;html=1;rounded=0;edgeStyle=orthogonalEdgeStyle;" parent="1" edge="1">
          <mxGeometry width="50" height="50" relative="1" as="geometry">
            <mxPoint x="670" y="240" as="sourcePoint" />
            <mxPoint x="650" y="300" as="targetPoint" />
            <Array as="points">
              <mxPoint x="670" y="270" />
              <mxPoint x="650" y="270" />
            </Array>
          </mxGeometry>
        </mxCell>
        <mxCell id="sAKsE0ivogJ3GXm1SD5--84" value="" style="endArrow=classic;html=1;rounded=0;edgeStyle=orthogonalEdgeStyle;entryX=0.25;entryY=0;entryDx=0;entryDy=0;" parent="1" target="QqHI9v1fLf5wOWhNgsvn-1" edge="1">
          <mxGeometry width="50" height="50" relative="1" as="geometry">
            <mxPoint x="630" y="340" as="sourcePoint" />
            <mxPoint x="520" y="420" as="targetPoint" />
            <Array as="points">
              <mxPoint x="630" y="390" />
              <mxPoint x="480" y="390" />
            </Array>
          </mxGeometry>
        </mxCell>
        <mxCell id="ZehIWAUSO71Dhs0gPwcl-26" value="key_mux_out" style="edgeLabel;html=1;align=center;verticalAlign=middle;resizable=0;points=[];" parent="sAKsE0ivogJ3GXm1SD5--84" vertex="1" connectable="0">
          <mxGeometry x="0.7212" relative="1" as="geometry">
            <mxPoint x="194" y="-100" as="offset" />
          </mxGeometry>
        </mxCell>
        <mxCell id="QqHI9v1fLf5wOWhNgsvn-4" value="key_mux_out" style="edgeLabel;html=1;align=center;verticalAlign=middle;resizable=0;points=[];" vertex="1" connectable="0" parent="sAKsE0ivogJ3GXm1SD5--84">
          <mxGeometry x="0.2174" y="-1" relative="1" as="geometry">
            <mxPoint x="-10" y="-9" as="offset" />
          </mxGeometry>
        </mxCell>
        <mxCell id="sAKsE0ivogJ3GXm1SD5--85" value="" style="endArrow=classic;html=1;rounded=0;" parent="1" edge="1">
          <mxGeometry width="50" height="50" relative="1" as="geometry">
            <mxPoint x="869.74" y="250" as="sourcePoint" />
            <mxPoint x="869.74" y="290" as="targetPoint" />
          </mxGeometry>
        </mxCell>
        <mxCell id="sAKsE0ivogJ3GXm1SD5--86" value="operation" style="edgeLabel;html=1;align=center;verticalAlign=middle;resizable=0;points=[];fontStyle=1" parent="sAKsE0ivogJ3GXm1SD5--85" vertex="1" connectable="0">
          <mxGeometry x="-0.6132" y="-2" relative="1" as="geometry">
            <mxPoint as="offset" />
          </mxGeometry>
        </mxCell>
        <mxCell id="sAKsE0ivogJ3GXm1SD5--87" value="" style="endArrow=classic;html=1;rounded=0;entryX=0.25;entryY=0;entryDx=0;entryDy=0;edgeStyle=orthogonalEdgeStyle;" parent="1" target="sAKsE0ivogJ3GXm1SD5--66" edge="1">
          <mxGeometry width="50" height="50" relative="1" as="geometry">
            <mxPoint x="380" y="460" as="sourcePoint" />
            <mxPoint x="420" y="490" as="targetPoint" />
            <Array as="points">
              <mxPoint x="380" y="480" />
              <mxPoint x="420" y="480" />
            </Array>
          </mxGeometry>
        </mxCell>
        <mxCell id="ZehIWAUSO71Dhs0gPwcl-25" value="op_temp1" style="edgeLabel;html=1;align=center;verticalAlign=middle;resizable=0;points=[];" parent="sAKsE0ivogJ3GXm1SD5--87" vertex="1" connectable="0">
          <mxGeometry x="-0.1083" relative="1" as="geometry">
            <mxPoint x="-26" as="offset" />
          </mxGeometry>
        </mxCell>
        <mxCell id="sAKsE0ivogJ3GXm1SD5--88" value="+" style="shape=trapezoid;perimeter=trapezoidPerimeter;whiteSpace=wrap;html=1;fixedSize=1;" parent="1" vertex="1">
          <mxGeometry x="30" y="450" width="80" height="40" as="geometry" />
        </mxCell>
        <mxCell id="sAKsE0ivogJ3GXm1SD5--89" value="-" style="shape=trapezoid;perimeter=trapezoidPerimeter;whiteSpace=wrap;html=1;fixedSize=1;" parent="1" vertex="1">
          <mxGeometry x="-70" y="450" width="80" height="40" as="geometry" />
        </mxCell>
        <mxCell id="sAKsE0ivogJ3GXm1SD5--90" value="to_reg&lt;br&gt;_mux" style="shape=trapezoid;perimeter=trapezoidPerimeter;whiteSpace=wrap;html=1;fixedSize=1;" parent="1" vertex="1">
          <mxGeometry x="-20" y="370" width="80" height="40" as="geometry" />
        </mxCell>
        <mxCell id="sAKsE0ivogJ3GXm1SD5--91" value="" style="endArrow=classic;html=1;rounded=0;edgeStyle=orthogonalEdgeStyle;" parent="1" edge="1">
          <mxGeometry width="50" height="50" relative="1" as="geometry">
            <mxPoint x="-30" y="450" as="sourcePoint" />
            <mxPoint y="410" as="targetPoint" />
            <Array as="points">
              <mxPoint x="-30" y="430" />
              <mxPoint y="430" />
            </Array>
          </mxGeometry>
        </mxCell>
        <mxCell id="mlmkOFfD04_6oQdwf5KQ-39" value="sub_op_out" style="edgeLabel;html=1;align=center;verticalAlign=middle;resizable=0;points=[];" parent="sAKsE0ivogJ3GXm1SD5--91" vertex="1" connectable="0">
          <mxGeometry x="-0.4381" relative="1" as="geometry">
            <mxPoint x="-30" as="offset" />
          </mxGeometry>
        </mxCell>
        <mxCell id="sAKsE0ivogJ3GXm1SD5--92" value="" style="endArrow=classic;html=1;rounded=0;edgeStyle=orthogonalEdgeStyle;" parent="1" edge="1">
          <mxGeometry width="50" height="50" relative="1" as="geometry">
            <mxPoint x="70" y="450" as="sourcePoint" />
            <mxPoint x="40" y="410" as="targetPoint" />
            <Array as="points">
              <mxPoint x="70" y="430" />
              <mxPoint x="40" y="430" />
              <mxPoint x="40" y="410" />
            </Array>
          </mxGeometry>
        </mxCell>
        <mxCell id="sAKsE0ivogJ3GXm1SD5--93" value="" style="endArrow=classic;html=1;rounded=0;edgeStyle=orthogonalEdgeStyle;" parent="1" edge="1">
          <mxGeometry width="50" height="50" relative="1" as="geometry">
            <mxPoint x="439.97" y="540" as="sourcePoint" />
            <mxPoint x="-10" y="490" as="targetPoint" />
            <Array as="points">
              <mxPoint x="440" y="570" />
              <mxPoint x="-10" y="570" />
              <mxPoint x="-10" y="490" />
            </Array>
          </mxGeometry>
        </mxCell>
        <mxCell id="ZehIWAUSO71Dhs0gPwcl-27" value="op_out" style="edgeLabel;html=1;align=center;verticalAlign=middle;resizable=0;points=[];" parent="sAKsE0ivogJ3GXm1SD5--93" vertex="1" connectable="0">
          <mxGeometry x="-0.254" y="1" relative="1" as="geometry">
            <mxPoint x="19" y="-11" as="offset" />
          </mxGeometry>
        </mxCell>
        <mxCell id="sAKsE0ivogJ3GXm1SD5--94" value="" style="endArrow=classic;html=1;rounded=0;" parent="1" edge="1">
          <mxGeometry width="50" height="50" relative="1" as="geometry">
            <mxPoint x="90" y="570" as="sourcePoint" />
            <mxPoint x="90" y="490" as="targetPoint" />
          </mxGeometry>
        </mxCell>
        <mxCell id="sAKsE0ivogJ3GXm1SD5--95" value="" style="endArrow=classic;html=1;rounded=0;" parent="1" edge="1">
          <mxGeometry width="50" height="50" relative="1" as="geometry">
            <mxPoint x="50" y="540" as="sourcePoint" />
            <mxPoint x="50" y="490" as="targetPoint" />
          </mxGeometry>
        </mxCell>
        <mxCell id="sAKsE0ivogJ3GXm1SD5--96" value="" style="endArrow=classic;html=1;rounded=0;" parent="1" edge="1">
          <mxGeometry width="50" height="50" relative="1" as="geometry">
            <mxPoint x="-50" y="540" as="sourcePoint" />
            <mxPoint x="-50" y="490" as="targetPoint" />
          </mxGeometry>
        </mxCell>
        <mxCell id="sAKsE0ivogJ3GXm1SD5--99" value="" style="endArrow=none;html=1;rounded=0;edgeStyle=orthogonalEdgeStyle;" parent="1" edge="1">
          <mxGeometry width="50" height="50" relative="1" as="geometry">
            <mxPoint x="-50" y="540" as="sourcePoint" />
            <mxPoint x="179.71" y="240" as="targetPoint" />
          </mxGeometry>
        </mxCell>
        <mxCell id="ZehIWAUSO71Dhs0gPwcl-33" value="op2_mux_out" style="edgeLabel;html=1;align=center;verticalAlign=middle;resizable=0;points=[];" parent="sAKsE0ivogJ3GXm1SD5--99" vertex="1" connectable="0">
          <mxGeometry x="0.8396" y="-2" relative="1" as="geometry">
            <mxPoint as="offset" />
          </mxGeometry>
        </mxCell>
        <mxCell id="sAKsE0ivogJ3GXm1SD5--105" value="" style="endArrow=classic;html=1;rounded=0;entryX=0.5;entryY=0;entryDx=0;entryDy=0;" parent="1" edge="1">
          <mxGeometry width="50" height="50" relative="1" as="geometry">
            <mxPoint x="270" y="40" as="sourcePoint" />
            <mxPoint x="270" y="70" as="targetPoint" />
          </mxGeometry>
        </mxCell>
        <mxCell id="sAKsE0ivogJ3GXm1SD5--106" value="" style="endArrow=classic;html=1;rounded=0;edgeStyle=orthogonalEdgeStyle;" parent="1" edge="1">
          <mxGeometry width="50" height="50" relative="1" as="geometry">
            <mxPoint x="20" y="370" as="sourcePoint" />
            <mxPoint x="370" y="70" as="targetPoint" />
            <Array as="points">
              <mxPoint x="20" y="40" />
              <mxPoint x="370" y="40" />
            </Array>
          </mxGeometry>
        </mxCell>
        <mxCell id="ZehIWAUSO71Dhs0gPwcl-52" value="operation_final" style="edgeLabel;html=1;align=center;verticalAlign=middle;resizable=0;points=[];" parent="sAKsE0ivogJ3GXm1SD5--106" vertex="1" connectable="0">
          <mxGeometry x="0.3943" y="-1" relative="1" as="geometry">
            <mxPoint x="-5" y="-11" as="offset" />
          </mxGeometry>
        </mxCell>
        <mxCell id="sAKsE0ivogJ3GXm1SD5--108" value="" style="endArrow=classic;html=1;rounded=0;" parent="1" edge="1">
          <mxGeometry width="50" height="50" relative="1" as="geometry">
            <mxPoint x="300" y="170" as="sourcePoint" />
            <mxPoint x="300" y="200" as="targetPoint" />
          </mxGeometry>
        </mxCell>
        <mxCell id="ZehIWAUSO71Dhs0gPwcl-18" value="v0_out" style="edgeLabel;html=1;align=center;verticalAlign=middle;resizable=0;points=[];" parent="sAKsE0ivogJ3GXm1SD5--108" vertex="1" connectable="0">
          <mxGeometry x="-0.2434" relative="1" as="geometry">
            <mxPoint x="-140" y="-11" as="offset" />
          </mxGeometry>
        </mxCell>
        <mxCell id="sAKsE0ivogJ3GXm1SD5--109" value="" style="endArrow=classic;html=1;rounded=0;" parent="1" edge="1">
          <mxGeometry width="50" height="50" relative="1" as="geometry">
            <mxPoint x="360" y="170" as="sourcePoint" />
            <mxPoint x="360" y="200" as="targetPoint" />
          </mxGeometry>
        </mxCell>
        <mxCell id="ZehIWAUSO71Dhs0gPwcl-16" value="v1_out" style="edgeLabel;html=1;align=center;verticalAlign=middle;resizable=0;points=[];" parent="sAKsE0ivogJ3GXm1SD5--109" vertex="1" connectable="0">
          <mxGeometry x="-0.1504" y="1" relative="1" as="geometry">
            <mxPoint x="19" y="-3" as="offset" />
          </mxGeometry>
        </mxCell>
        <mxCell id="sAKsE0ivogJ3GXm1SD5--110" value="" style="endArrow=classic;html=1;rounded=0;" parent="1" edge="1">
          <mxGeometry width="50" height="50" relative="1" as="geometry">
            <mxPoint x="300" y="20" as="sourcePoint" />
            <mxPoint x="300" y="70" as="targetPoint" />
          </mxGeometry>
        </mxCell>
        <mxCell id="sAKsE0ivogJ3GXm1SD5--113" value="i_v0" style="edgeLabel;html=1;align=center;verticalAlign=middle;resizable=0;points=[];" parent="sAKsE0ivogJ3GXm1SD5--110" vertex="1" connectable="0">
          <mxGeometry x="-0.4853" y="-1" relative="1" as="geometry">
            <mxPoint x="1" y="-23" as="offset" />
          </mxGeometry>
        </mxCell>
        <mxCell id="sAKsE0ivogJ3GXm1SD5--111" value="" style="endArrow=classic;html=1;rounded=0;" parent="1" edge="1">
          <mxGeometry width="50" height="50" relative="1" as="geometry">
            <mxPoint x="400" y="20" as="sourcePoint" />
            <mxPoint x="400" y="70" as="targetPoint" />
          </mxGeometry>
        </mxCell>
        <mxCell id="sAKsE0ivogJ3GXm1SD5--112" value="i_v1" style="edgeLabel;html=1;align=center;verticalAlign=middle;resizable=0;points=[];" parent="sAKsE0ivogJ3GXm1SD5--111" vertex="1" connectable="0">
          <mxGeometry x="-0.2853" relative="1" as="geometry">
            <mxPoint y="-28" as="offset" />
          </mxGeometry>
        </mxCell>
        <mxCell id="sAKsE0ivogJ3GXm1SD5--114" value="" style="endArrow=classic;html=1;rounded=0;entryX=0.25;entryY=0;entryDx=0;entryDy=0;" parent="1" edge="1">
          <mxGeometry width="50" height="50" relative="1" as="geometry">
            <mxPoint x="950" y="250" as="sourcePoint" />
            <mxPoint x="950" y="300" as="targetPoint" />
          </mxGeometry>
        </mxCell>
        <mxCell id="sAKsE0ivogJ3GXm1SD5--115" value="en_sum+delta" style="edgeLabel;html=1;align=center;verticalAlign=middle;resizable=0;points=[];fontStyle=1" parent="sAKsE0ivogJ3GXm1SD5--114" vertex="1" connectable="0">
          <mxGeometry x="-0.354" y="3" relative="1" as="geometry">
            <mxPoint x="-33" y="-26" as="offset" />
          </mxGeometry>
        </mxCell>
        <mxCell id="sAKsE0ivogJ3GXm1SD5--116" value="" style="endArrow=classic;html=1;rounded=0;" parent="1" edge="1">
          <mxGeometry width="50" height="50" relative="1" as="geometry">
            <mxPoint x="609.86" y="70.71000000000001" as="sourcePoint" />
            <mxPoint x="610" y="110" as="targetPoint" />
          </mxGeometry>
        </mxCell>
        <mxCell id="sAKsE0ivogJ3GXm1SD5--117" value="num_rounds" style="edgeLabel;html=1;align=center;verticalAlign=middle;resizable=0;points=[];fontStyle=1" parent="sAKsE0ivogJ3GXm1SD5--116" vertex="1" connectable="0">
          <mxGeometry x="-0.4006" relative="1" as="geometry">
            <mxPoint as="offset" />
          </mxGeometry>
        </mxCell>
        <mxCell id="sAKsE0ivogJ3GXm1SD5--122" value="" style="endArrow=classic;html=1;rounded=0;" parent="1" edge="1">
          <mxGeometry width="50" height="50" relative="1" as="geometry">
            <mxPoint x="699.86" y="70.71000000000001" as="sourcePoint" />
            <mxPoint x="700" y="110" as="targetPoint" />
          </mxGeometry>
        </mxCell>
        <mxCell id="sAKsE0ivogJ3GXm1SD5--123" value="encrypt/decrypt" style="edgeLabel;html=1;align=center;verticalAlign=middle;resizable=0;points=[];fontStyle=1" parent="sAKsE0ivogJ3GXm1SD5--122" vertex="1" connectable="0">
          <mxGeometry x="-0.4006" relative="1" as="geometry">
            <mxPoint as="offset" />
          </mxGeometry>
        </mxCell>
        <mxCell id="sAKsE0ivogJ3GXm1SD5--124" value="" style="endArrow=classic;html=1;rounded=0;" parent="1" edge="1">
          <mxGeometry width="50" height="50" relative="1" as="geometry">
            <mxPoint x="-40" y="390" as="sourcePoint" />
            <mxPoint x="-10" y="390" as="targetPoint" />
          </mxGeometry>
        </mxCell>
        <mxCell id="sAKsE0ivogJ3GXm1SD5--125" value="en_encrypt/decrypt" style="edgeLabel;html=1;align=center;verticalAlign=middle;resizable=0;points=[];fontStyle=1" parent="sAKsE0ivogJ3GXm1SD5--124" vertex="1" connectable="0">
          <mxGeometry x="-0.6016" relative="1" as="geometry">
            <mxPoint x="-36" y="-10" as="offset" />
          </mxGeometry>
        </mxCell>
        <mxCell id="sAKsE0ivogJ3GXm1SD5--127" value="" style="endArrow=classic;html=1;rounded=0;" parent="1" edge="1">
          <mxGeometry width="50" height="50" relative="1" as="geometry">
            <mxPoint x="235" y="149.88" as="sourcePoint" />
            <mxPoint x="255" y="149.88" as="targetPoint" />
          </mxGeometry>
        </mxCell>
        <mxCell id="sAKsE0ivogJ3GXm1SD5--128" value="en_v0" style="edgeLabel;html=1;align=center;verticalAlign=middle;resizable=0;points=[];fontStyle=1" parent="sAKsE0ivogJ3GXm1SD5--127" vertex="1" connectable="0">
          <mxGeometry x="-0.5611" y="-1" relative="1" as="geometry">
            <mxPoint x="-14" y="-11" as="offset" />
          </mxGeometry>
        </mxCell>
        <mxCell id="sAKsE0ivogJ3GXm1SD5--129" value="" style="endArrow=classic;html=1;rounded=0;" parent="1" edge="1">
          <mxGeometry width="50" height="50" relative="1" as="geometry">
            <mxPoint x="430" y="149.92" as="sourcePoint" />
            <mxPoint x="410" y="150.09" as="targetPoint" />
          </mxGeometry>
        </mxCell>
        <mxCell id="sAKsE0ivogJ3GXm1SD5--130" value="en_v1" style="edgeLabel;html=1;align=center;verticalAlign=middle;resizable=0;points=[];fontStyle=1" parent="sAKsE0ivogJ3GXm1SD5--129" vertex="1" connectable="0">
          <mxGeometry x="-0.5611" y="-1" relative="1" as="geometry">
            <mxPoint x="4" y="-11" as="offset" />
          </mxGeometry>
        </mxCell>
        <mxCell id="ZehIWAUSO71Dhs0gPwcl-6" value="v0_MUX" style="shape=trapezoid;perimeter=trapezoidPerimeter;whiteSpace=wrap;html=1;fixedSize=1;flipV=1;" parent="1" vertex="1">
          <mxGeometry x="240" y="70" width="90" height="30" as="geometry" />
        </mxCell>
        <mxCell id="ZehIWAUSO71Dhs0gPwcl-7" value="v1_MUX1" style="shape=trapezoid;perimeter=trapezoidPerimeter;whiteSpace=wrap;html=1;fixedSize=1;flipV=1;" parent="1" vertex="1">
          <mxGeometry x="340" y="70" width="100" height="30" as="geometry" />
        </mxCell>
        <mxCell id="ZehIWAUSO71Dhs0gPwcl-8" value="" style="endArrow=classic;html=1;rounded=0;" parent="1" edge="1">
          <mxGeometry width="50" height="50" relative="1" as="geometry">
            <mxPoint x="284.8" y="100" as="sourcePoint" />
            <mxPoint x="285" y="130" as="targetPoint" />
          </mxGeometry>
        </mxCell>
        <mxCell id="ZehIWAUSO71Dhs0gPwcl-20" value="v0_mux_out" style="edgeLabel;html=1;align=center;verticalAlign=middle;resizable=0;points=[];" parent="ZehIWAUSO71Dhs0gPwcl-8" vertex="1" connectable="0">
          <mxGeometry x="-0.333" y="1" relative="1" as="geometry">
            <mxPoint as="offset" />
          </mxGeometry>
        </mxCell>
        <mxCell id="ZehIWAUSO71Dhs0gPwcl-9" value="" style="endArrow=classic;html=1;rounded=0;" parent="1" edge="1">
          <mxGeometry width="50" height="50" relative="1" as="geometry">
            <mxPoint x="389.86" y="100" as="sourcePoint" />
            <mxPoint x="390" y="130" as="targetPoint" />
          </mxGeometry>
        </mxCell>
        <mxCell id="ZehIWAUSO71Dhs0gPwcl-21" value="v1_mux_out" style="edgeLabel;html=1;align=center;verticalAlign=middle;resizable=0;points=[];" parent="ZehIWAUSO71Dhs0gPwcl-9" vertex="1" connectable="0">
          <mxGeometry x="-0.3597" y="1" relative="1" as="geometry">
            <mxPoint as="offset" />
          </mxGeometry>
        </mxCell>
        <mxCell id="ZehIWAUSO71Dhs0gPwcl-11" value="" style="endArrow=classic;html=1;rounded=0;" parent="1" edge="1">
          <mxGeometry width="50" height="50" relative="1" as="geometry">
            <mxPoint x="230" y="84.88" as="sourcePoint" />
            <mxPoint x="250" y="84.88" as="targetPoint" />
          </mxGeometry>
        </mxCell>
        <mxCell id="ZehIWAUSO71Dhs0gPwcl-12" value="sel_v0" style="edgeLabel;html=1;align=center;verticalAlign=middle;resizable=0;points=[];fontStyle=1" parent="ZehIWAUSO71Dhs0gPwcl-11" vertex="1" connectable="0">
          <mxGeometry x="-0.5611" y="-1" relative="1" as="geometry">
            <mxPoint x="-14" y="-11" as="offset" />
          </mxGeometry>
        </mxCell>
        <mxCell id="ZehIWAUSO71Dhs0gPwcl-14" value="" style="endArrow=classic;html=1;rounded=0;" parent="1" edge="1">
          <mxGeometry width="50" height="50" relative="1" as="geometry">
            <mxPoint x="450" y="84.82999999999998" as="sourcePoint" />
            <mxPoint x="430" y="85.16" as="targetPoint" />
          </mxGeometry>
        </mxCell>
        <mxCell id="ZehIWAUSO71Dhs0gPwcl-15" value="sel_v1" style="edgeLabel;html=1;align=center;verticalAlign=middle;resizable=0;points=[];fontStyle=1" parent="ZehIWAUSO71Dhs0gPwcl-14" vertex="1" connectable="0">
          <mxGeometry x="-0.5611" y="-1" relative="1" as="geometry">
            <mxPoint x="14" y="-9" as="offset" />
          </mxGeometry>
        </mxCell>
        <mxCell id="ZehIWAUSO71Dhs0gPwcl-28" value="op_mux2" style="shape=trapezoid;perimeter=trapezoidPerimeter;whiteSpace=wrap;html=1;fixedSize=1;flipV=1;" parent="1" vertex="1">
          <mxGeometry x="140" y="200" width="80" height="40" as="geometry" />
        </mxCell>
        <mxCell id="ZehIWAUSO71Dhs0gPwcl-29" value="" style="endArrow=classic;html=1;rounded=0;entryX=1;entryY=0.5;entryDx=0;entryDy=0;" parent="1" target="ZehIWAUSO71Dhs0gPwcl-28" edge="1">
          <mxGeometry width="50" height="50" relative="1" as="geometry">
            <mxPoint x="230" y="240" as="sourcePoint" />
            <mxPoint x="240" y="230" as="targetPoint" />
          </mxGeometry>
        </mxCell>
        <mxCell id="ZehIWAUSO71Dhs0gPwcl-30" value="&lt;b&gt;operation&lt;/b&gt;" style="edgeLabel;html=1;align=center;verticalAlign=middle;resizable=0;points=[];" parent="ZehIWAUSO71Dhs0gPwcl-29" vertex="1" connectable="0">
          <mxGeometry x="-0.5278" relative="1" as="geometry">
            <mxPoint x="15" y="5" as="offset" />
          </mxGeometry>
        </mxCell>
        <mxCell id="ZehIWAUSO71Dhs0gPwcl-31" value="" style="endArrow=classic;html=1;rounded=0;entryX=0.25;entryY=0;entryDx=0;entryDy=0;edgeStyle=orthogonalEdgeStyle;" parent="1" target="ZehIWAUSO71Dhs0gPwcl-28" edge="1">
          <mxGeometry width="50" height="50" relative="1" as="geometry">
            <mxPoint x="300" y="180" as="sourcePoint" />
            <mxPoint x="200" y="140" as="targetPoint" />
          </mxGeometry>
        </mxCell>
        <mxCell id="ZehIWAUSO71Dhs0gPwcl-32" value="" style="endArrow=classic;html=1;rounded=0;edgeStyle=orthogonalEdgeStyle;" parent="1" edge="1">
          <mxGeometry width="50" height="50" relative="1" as="geometry">
            <mxPoint x="360" y="190" as="sourcePoint" />
            <mxPoint x="190" y="200" as="targetPoint" />
            <Array as="points">
              <mxPoint x="360" y="185" />
              <mxPoint x="190" y="185" />
            </Array>
          </mxGeometry>
        </mxCell>
        <mxCell id="ZehIWAUSO71Dhs0gPwcl-35" value="key1_out" style="edgeLabel;html=1;align=center;verticalAlign=middle;resizable=0;points=[];" parent="1" vertex="1" connectable="0">
          <mxGeometry x="600" y="260.0044827586207" as="geometry" />
        </mxCell>
        <mxCell id="ZehIWAUSO71Dhs0gPwcl-36" value="key2_out" style="edgeLabel;html=1;align=center;verticalAlign=middle;resizable=0;points=[];" parent="1" vertex="1" connectable="0">
          <mxGeometry x="660" y="260.0044827586207" as="geometry" />
        </mxCell>
        <mxCell id="ZehIWAUSO71Dhs0gPwcl-37" value="key3_out" style="edgeLabel;html=1;align=center;verticalAlign=middle;resizable=0;points=[];" parent="1" vertex="1" connectable="0">
          <mxGeometry x="720" y="280.0044827586207" as="geometry">
            <mxPoint x="-2" y="-2" as="offset" />
          </mxGeometry>
        </mxCell>
        <mxCell id="ZehIWAUSO71Dhs0gPwcl-41" value="0" style="text;html=1;strokeColor=none;fillColor=none;align=center;verticalAlign=middle;whiteSpace=wrap;rounded=0;" parent="1" vertex="1">
          <mxGeometry x="880" y="300" width="10" height="10" as="geometry" />
        </mxCell>
        <mxCell id="ZehIWAUSO71Dhs0gPwcl-43" value="1" style="text;html=1;strokeColor=none;fillColor=none;align=center;verticalAlign=middle;whiteSpace=wrap;rounded=0;" parent="1" vertex="1">
          <mxGeometry x="880" y="330" width="10" height="10" as="geometry" />
        </mxCell>
        <mxCell id="ZehIWAUSO71Dhs0gPwcl-47" value="" style="endArrow=classic;html=1;rounded=0;edgeStyle=orthogonalEdgeStyle;entryX=0.75;entryY=0;entryDx=0;entryDy=0;" parent="1" edge="1" target="sAKsE0ivogJ3GXm1SD5--45">
          <mxGeometry width="50" height="50" relative="1" as="geometry">
            <mxPoint x="1010" y="360" as="sourcePoint" />
            <mxPoint x="960" y="390" as="targetPoint" />
            <Array as="points">
              <mxPoint x="960" y="360" />
            </Array>
          </mxGeometry>
        </mxCell>
        <mxCell id="ZehIWAUSO71Dhs0gPwcl-53" value="-" style="shape=trapezoid;perimeter=trapezoidPerimeter;whiteSpace=wrap;html=1;fixedSize=1;flipV=1;" parent="1" vertex="1">
          <mxGeometry x="1090" y="380" width="80" height="40" as="geometry" />
        </mxCell>
        <mxCell id="ZehIWAUSO71Dhs0gPwcl-54" value="sum_delta&lt;br&gt;_mux" style="shape=trapezoid;perimeter=trapezoidPerimeter;whiteSpace=wrap;html=1;fixedSize=1;flipV=1;" parent="1" vertex="1">
          <mxGeometry x="1040" y="440" width="90" height="40" as="geometry" />
        </mxCell>
        <mxCell id="ZehIWAUSO71Dhs0gPwcl-55" value="" style="endArrow=classic;html=1;rounded=0;" parent="1" edge="1">
          <mxGeometry width="50" height="50" relative="1" as="geometry">
            <mxPoint x="1050" y="420" as="sourcePoint" />
            <mxPoint x="1050" y="440" as="targetPoint" />
          </mxGeometry>
        </mxCell>
        <mxCell id="mlmkOFfD04_6oQdwf5KQ-32" value="add_sum_delta" style="edgeLabel;html=1;align=center;verticalAlign=middle;resizable=0;points=[];" parent="ZehIWAUSO71Dhs0gPwcl-55" vertex="1" connectable="0">
          <mxGeometry x="-0.1" relative="1" as="geometry">
            <mxPoint x="-45" y="1" as="offset" />
          </mxGeometry>
        </mxCell>
        <mxCell id="ZehIWAUSO71Dhs0gPwcl-56" value="" style="endArrow=classic;html=1;rounded=0;" parent="1" edge="1">
          <mxGeometry width="50" height="50" relative="1" as="geometry">
            <mxPoint x="1120" y="420" as="sourcePoint" />
            <mxPoint x="1120" y="440" as="targetPoint" />
          </mxGeometry>
        </mxCell>
        <mxCell id="mlmkOFfD04_6oQdwf5KQ-33" value="sub_sum_delta" style="edgeLabel;html=1;align=center;verticalAlign=middle;resizable=0;points=[];" parent="ZehIWAUSO71Dhs0gPwcl-56" vertex="1" connectable="0">
          <mxGeometry x="-0.4077" relative="1" as="geometry">
            <mxPoint x="50" y="4" as="offset" />
          </mxGeometry>
        </mxCell>
        <mxCell id="ZehIWAUSO71Dhs0gPwcl-57" value="" style="endArrow=classic;html=1;rounded=0;edgeStyle=orthogonalEdgeStyle;" parent="1" edge="1">
          <mxGeometry width="50" height="50" relative="1" as="geometry">
            <mxPoint x="1080" y="480" as="sourcePoint" />
            <mxPoint x="1020" y="240" as="targetPoint" />
            <Array as="points">
              <mxPoint x="1080" y="500" />
              <mxPoint x="1380" y="500" />
              <mxPoint x="1380" y="170" />
              <mxPoint x="1020" y="170" />
              <mxPoint x="1020" y="220" />
            </Array>
          </mxGeometry>
        </mxCell>
        <mxCell id="ZehIWAUSO71Dhs0gPwcl-60" value="sum_in" style="edgeLabel;html=1;align=center;verticalAlign=middle;resizable=0;points=[];" parent="ZehIWAUSO71Dhs0gPwcl-57" vertex="1" connectable="0">
          <mxGeometry x="0.6369" y="-2" relative="1" as="geometry">
            <mxPoint x="-2" y="-8" as="offset" />
          </mxGeometry>
        </mxCell>
        <mxCell id="ZehIWAUSO71Dhs0gPwcl-58" value="" style="endArrow=classic;html=1;rounded=0;" parent="1" edge="1">
          <mxGeometry width="50" height="50" relative="1" as="geometry">
            <mxPoint x="1150" y="320" as="sourcePoint" />
            <mxPoint x="1150" y="380" as="targetPoint" />
          </mxGeometry>
        </mxCell>
        <mxCell id="ZehIWAUSO71Dhs0gPwcl-59" value="" style="endArrow=classic;html=1;rounded=0;edgeStyle=orthogonalEdgeStyle;" parent="1" edge="1">
          <mxGeometry width="50" height="50" relative="1" as="geometry">
            <mxPoint x="1010" y="360" as="sourcePoint" />
            <mxPoint x="1110" y="380" as="targetPoint" />
          </mxGeometry>
        </mxCell>
        <mxCell id="ZehIWAUSO71Dhs0gPwcl-63" value="" style="endArrow=classic;html=1;rounded=0;" parent="1" edge="1">
          <mxGeometry width="50" height="50" relative="1" as="geometry">
            <mxPoint x="1150" y="459.8" as="sourcePoint" />
            <mxPoint x="1120" y="459.8" as="targetPoint" />
          </mxGeometry>
        </mxCell>
        <mxCell id="ZehIWAUSO71Dhs0gPwcl-64" value="i_ende" style="edgeLabel;html=1;align=center;verticalAlign=middle;resizable=0;points=[];" parent="ZehIWAUSO71Dhs0gPwcl-63" vertex="1" connectable="0">
          <mxGeometry x="-0.6373" y="-1" relative="1" as="geometry">
            <mxPoint x="16" y="-9" as="offset" />
          </mxGeometry>
        </mxCell>
        <mxCell id="mlmkOFfD04_6oQdwf5KQ-1" value="sum_mux" style="shape=trapezoid;perimeter=trapezoidPerimeter;whiteSpace=wrap;html=1;fixedSize=1;flipV=1;" parent="1" vertex="1">
          <mxGeometry x="960" y="240" width="90" height="40" as="geometry" />
        </mxCell>
        <mxCell id="mlmkOFfD04_6oQdwf5KQ-2" value="" style="endArrow=classic;html=1;rounded=0;" parent="1" edge="1">
          <mxGeometry width="50" height="50" relative="1" as="geometry">
            <mxPoint x="1004.77" y="280" as="sourcePoint" />
            <mxPoint x="1004.77" y="300" as="targetPoint" />
          </mxGeometry>
        </mxCell>
        <mxCell id="mlmkOFfD04_6oQdwf5KQ-3" value="&lt;span style=&quot;font-weight: normal;&quot;&gt;sum_mux_out&lt;/span&gt;" style="edgeLabel;html=1;align=center;verticalAlign=middle;resizable=0;points=[];fontStyle=1" parent="mlmkOFfD04_6oQdwf5KQ-2" vertex="1" connectable="0">
          <mxGeometry x="-0.354" y="3" relative="1" as="geometry">
            <mxPoint x="37" y="3" as="offset" />
          </mxGeometry>
        </mxCell>
        <mxCell id="mlmkOFfD04_6oQdwf5KQ-5" value="first_sum&lt;br&gt;_mux" style="shape=trapezoid;perimeter=trapezoidPerimeter;whiteSpace=wrap;html=1;fixedSize=1;flipV=1;" parent="1" vertex="1">
          <mxGeometry x="920" y="180" width="90" height="40" as="geometry" />
        </mxCell>
        <mxCell id="mlmkOFfD04_6oQdwf5KQ-6" value="" style="endArrow=classic;html=1;rounded=0;" parent="1" edge="1">
          <mxGeometry width="50" height="50" relative="1" as="geometry">
            <mxPoint x="980" y="220" as="sourcePoint" />
            <mxPoint x="980" y="240" as="targetPoint" />
          </mxGeometry>
        </mxCell>
        <mxCell id="mlmkOFfD04_6oQdwf5KQ-17" value="first_sum" style="edgeLabel;html=1;align=center;verticalAlign=middle;resizable=0;points=[];" parent="mlmkOFfD04_6oQdwf5KQ-6" vertex="1" connectable="0">
          <mxGeometry x="-0.2182" relative="1" as="geometry">
            <mxPoint as="offset" />
          </mxGeometry>
        </mxCell>
        <mxCell id="mlmkOFfD04_6oQdwf5KQ-7" value="" style="endArrow=classic;html=1;rounded=0;" parent="1" edge="1">
          <mxGeometry width="50" height="50" relative="1" as="geometry">
            <mxPoint x="940" y="150" as="sourcePoint" />
            <mxPoint x="940" y="180" as="targetPoint" />
          </mxGeometry>
        </mxCell>
        <mxCell id="mlmkOFfD04_6oQdwf5KQ-13" value="delta*num_rounds" style="edgeLabel;html=1;align=center;verticalAlign=middle;resizable=0;points=[];" parent="mlmkOFfD04_6oQdwf5KQ-7" vertex="1" connectable="0">
          <mxGeometry x="-0.5225" relative="1" as="geometry">
            <mxPoint x="-20" y="-17" as="offset" />
          </mxGeometry>
        </mxCell>
        <mxCell id="mlmkOFfD04_6oQdwf5KQ-8" value="" style="endArrow=classic;html=1;rounded=0;" parent="1" edge="1">
          <mxGeometry width="50" height="50" relative="1" as="geometry">
            <mxPoint x="980" y="150" as="sourcePoint" />
            <mxPoint x="980" y="180" as="targetPoint" />
          </mxGeometry>
        </mxCell>
        <mxCell id="mlmkOFfD04_6oQdwf5KQ-11" value="0" style="edgeLabel;html=1;align=center;verticalAlign=middle;resizable=0;points=[];" parent="mlmkOFfD04_6oQdwf5KQ-8" vertex="1" connectable="0">
          <mxGeometry x="-0.6465" y="2" relative="1" as="geometry">
            <mxPoint x="-2" y="-15" as="offset" />
          </mxGeometry>
        </mxCell>
        <mxCell id="mlmkOFfD04_6oQdwf5KQ-9" value="" style="endArrow=classic;html=1;rounded=0;fontStyle=1" parent="1" edge="1">
          <mxGeometry width="50" height="50" relative="1" as="geometry">
            <mxPoint x="890" y="200" as="sourcePoint" />
            <mxPoint x="930" y="200" as="targetPoint" />
          </mxGeometry>
        </mxCell>
        <mxCell id="mlmkOFfD04_6oQdwf5KQ-10" value="&lt;b&gt;ende&lt;/b&gt;" style="edgeLabel;html=1;align=center;verticalAlign=middle;resizable=0;points=[];" parent="mlmkOFfD04_6oQdwf5KQ-9" vertex="1" connectable="0">
          <mxGeometry x="-0.4488" y="-1" relative="1" as="geometry">
            <mxPoint x="-11" y="-11" as="offset" />
          </mxGeometry>
        </mxCell>
        <mxCell id="mlmkOFfD04_6oQdwf5KQ-14" value="" style="endArrow=classic;html=1;rounded=0;" parent="1" target="mlmkOFfD04_6oQdwf5KQ-1" edge="1">
          <mxGeometry width="50" height="50" relative="1" as="geometry">
            <mxPoint x="1060" y="260" as="sourcePoint" />
            <mxPoint x="1110" y="210" as="targetPoint" />
          </mxGeometry>
        </mxCell>
        <mxCell id="mlmkOFfD04_6oQdwf5KQ-15" value="&lt;b&gt;sel_sum&lt;/b&gt;" style="edgeLabel;html=1;align=center;verticalAlign=middle;resizable=0;points=[];" parent="mlmkOFfD04_6oQdwf5KQ-14" vertex="1" connectable="0">
          <mxGeometry x="-0.4884" y="-1" relative="1" as="geometry">
            <mxPoint x="30" y="1" as="offset" />
          </mxGeometry>
        </mxCell>
        <mxCell id="mlmkOFfD04_6oQdwf5KQ-18" value="0" style="text;html=1;strokeColor=none;fillColor=none;align=center;verticalAlign=middle;whiteSpace=wrap;rounded=0;" parent="1" vertex="1">
          <mxGeometry x="1020" y="240" width="10" height="10" as="geometry" />
        </mxCell>
        <mxCell id="mlmkOFfD04_6oQdwf5KQ-19" value="1" style="text;html=1;strokeColor=none;fillColor=none;align=center;verticalAlign=middle;whiteSpace=wrap;rounded=0;" parent="1" vertex="1">
          <mxGeometry x="980" y="240" width="10" height="10" as="geometry" />
        </mxCell>
        <mxCell id="mlmkOFfD04_6oQdwf5KQ-20" value="0" style="text;html=1;strokeColor=none;fillColor=none;align=center;verticalAlign=middle;whiteSpace=wrap;rounded=0;" parent="1" vertex="1">
          <mxGeometry x="940" y="180" width="10" height="10" as="geometry" />
        </mxCell>
        <mxCell id="mlmkOFfD04_6oQdwf5KQ-21" value="1" style="text;html=1;strokeColor=none;fillColor=none;align=center;verticalAlign=middle;whiteSpace=wrap;rounded=0;" parent="1" vertex="1">
          <mxGeometry x="975" y="180" width="10" height="10" as="geometry" />
        </mxCell>
        <mxCell id="mlmkOFfD04_6oQdwf5KQ-22" value="0" style="text;html=1;strokeColor=none;fillColor=none;align=center;verticalAlign=middle;whiteSpace=wrap;rounded=0;" parent="1" vertex="1">
          <mxGeometry x="260" y="70" width="10" height="10" as="geometry" />
        </mxCell>
        <mxCell id="mlmkOFfD04_6oQdwf5KQ-23" value="1" style="text;html=1;strokeColor=none;fillColor=none;align=center;verticalAlign=middle;whiteSpace=wrap;rounded=0;" parent="1" vertex="1">
          <mxGeometry x="300" y="70" width="10" height="10" as="geometry" />
        </mxCell>
        <mxCell id="mlmkOFfD04_6oQdwf5KQ-24" value="0" style="text;html=1;strokeColor=none;fillColor=none;align=center;verticalAlign=middle;whiteSpace=wrap;rounded=0;" parent="1" vertex="1">
          <mxGeometry x="360" y="70" width="10" height="10" as="geometry" />
        </mxCell>
        <mxCell id="mlmkOFfD04_6oQdwf5KQ-25" value="1" style="text;html=1;strokeColor=none;fillColor=none;align=center;verticalAlign=middle;whiteSpace=wrap;rounded=0;" parent="1" vertex="1">
          <mxGeometry x="400" y="70" width="10" height="10" as="geometry" />
        </mxCell>
        <mxCell id="mlmkOFfD04_6oQdwf5KQ-26" value="1" style="text;html=1;strokeColor=none;fillColor=none;align=center;verticalAlign=middle;whiteSpace=wrap;rounded=0;" parent="1" vertex="1">
          <mxGeometry x="300" y="200" width="10" height="10" as="geometry" />
        </mxCell>
        <mxCell id="mlmkOFfD04_6oQdwf5KQ-27" value="0" style="text;html=1;strokeColor=none;fillColor=none;align=center;verticalAlign=middle;whiteSpace=wrap;rounded=0;" parent="1" vertex="1">
          <mxGeometry x="350" y="200" width="10" height="10" as="geometry" />
        </mxCell>
        <mxCell id="mlmkOFfD04_6oQdwf5KQ-28" value="1" style="text;html=1;strokeColor=none;fillColor=none;align=center;verticalAlign=middle;whiteSpace=wrap;rounded=0;" parent="1" vertex="1">
          <mxGeometry x="190" y="200" width="10" height="10" as="geometry" />
        </mxCell>
        <mxCell id="mlmkOFfD04_6oQdwf5KQ-29" value="0" style="text;html=1;strokeColor=none;fillColor=none;align=center;verticalAlign=middle;whiteSpace=wrap;rounded=0;" parent="1" vertex="1">
          <mxGeometry x="160" y="200" width="10" height="10" as="geometry" />
        </mxCell>
        <mxCell id="mlmkOFfD04_6oQdwf5KQ-34" value="1" style="text;html=1;strokeColor=none;fillColor=none;align=center;verticalAlign=middle;whiteSpace=wrap;rounded=0;" parent="1" vertex="1">
          <mxGeometry x="1060" y="440" width="10" height="10" as="geometry" />
        </mxCell>
        <mxCell id="mlmkOFfD04_6oQdwf5KQ-35" value="0" style="text;html=1;strokeColor=none;fillColor=none;align=center;verticalAlign=middle;whiteSpace=wrap;rounded=0;" parent="1" vertex="1">
          <mxGeometry x="1100" y="440" width="10" height="10" as="geometry" />
        </mxCell>
        <mxCell id="mlmkOFfD04_6oQdwf5KQ-38" value="add_op_out" style="text;html=1;align=center;verticalAlign=middle;resizable=0;points=[];autosize=1;strokeColor=none;fillColor=none;" parent="1" vertex="1">
          <mxGeometry x="60" y="410" width="90" height="30" as="geometry" />
        </mxCell>
        <mxCell id="mlmkOFfD04_6oQdwf5KQ-40" value="" style="endArrow=classic;html=1;rounded=0;" parent="1" edge="1">
          <mxGeometry width="50" height="50" relative="1" as="geometry">
            <mxPoint x="1040" y="320" as="sourcePoint" />
            <mxPoint x="1020" y="320.17" as="targetPoint" />
          </mxGeometry>
        </mxCell>
        <mxCell id="mlmkOFfD04_6oQdwf5KQ-41" value="en_sum" style="edgeLabel;html=1;align=center;verticalAlign=middle;resizable=0;points=[];fontStyle=1" parent="mlmkOFfD04_6oQdwf5KQ-40" vertex="1" connectable="0">
          <mxGeometry x="-0.5611" y="-1" relative="1" as="geometry">
            <mxPoint x="4" y="-11" as="offset" />
          </mxGeometry>
        </mxCell>
        <mxCell id="QqHI9v1fLf5wOWhNgsvn-1" value="+" style="shape=trapezoid;perimeter=trapezoidPerimeter;whiteSpace=wrap;html=1;fixedSize=1;flipV=1;" vertex="1" parent="1">
          <mxGeometry x="460" y="420" width="80" height="40" as="geometry" />
        </mxCell>
        <mxCell id="QqHI9v1fLf5wOWhNgsvn-2" value="" style="endArrow=classic;html=1;rounded=0;edgeStyle=orthogonalEdgeStyle;" edge="1" parent="1">
          <mxGeometry width="50" height="50" relative="1" as="geometry">
            <mxPoint x="960" y="360" as="sourcePoint" />
            <mxPoint x="520" y="420" as="targetPoint" />
            <Array as="points">
              <mxPoint x="960" y="370" />
              <mxPoint x="700" y="370" />
              <mxPoint x="700" y="400" />
              <mxPoint x="520" y="400" />
            </Array>
          </mxGeometry>
        </mxCell>
        <mxCell id="QqHI9v1fLf5wOWhNgsvn-5" value="sum_out" style="edgeLabel;html=1;align=center;verticalAlign=middle;resizable=0;points=[];" vertex="1" connectable="0" parent="QqHI9v1fLf5wOWhNgsvn-2">
          <mxGeometry x="0.6667" relative="1" as="geometry">
            <mxPoint x="17" y="10" as="offset" />
          </mxGeometry>
        </mxCell>
        <mxCell id="QqHI9v1fLf5wOWhNgsvn-3" value="" style="endArrow=classic;html=1;rounded=0;edgeStyle=orthogonalEdgeStyle;" edge="1" parent="1">
          <mxGeometry width="50" height="50" relative="1" as="geometry">
            <mxPoint x="500" y="460" as="sourcePoint" />
            <mxPoint x="460" y="500" as="targetPoint" />
            <Array as="points">
              <mxPoint x="500" y="470" />
              <mxPoint x="460" y="470" />
            </Array>
          </mxGeometry>
        </mxCell>
        <mxCell id="QqHI9v1fLf5wOWhNgsvn-6" value="op_temp2" style="edgeLabel;html=1;align=center;verticalAlign=middle;resizable=0;points=[];" vertex="1" connectable="0" parent="QqHI9v1fLf5wOWhNgsvn-3">
          <mxGeometry x="-0.4417" y="-1" relative="1" as="geometry">
            <mxPoint x="2" y="11" as="offset" />
          </mxGeometry>
        </mxCell>
      </root>
    </mxGraphModel>
  </diagram>
</mxfile>
